<svg width="1240" height="1240" viewBox="0 0 1240 1240" fill="none" xmlns="http://www.w3.org/2000/svg">
<rect width="1240" height="1240" fill="#F5F5F5"/>
<g clip-path="url(#clip0_0_1)">
<rect width="1240" height="1240" fill="white"/>
<mask id="path-1-outside-1_0_1" maskUnits="userSpaceOnUse" x="151" y="72" width="939" height="1093" fill="black">
<rect fill="white" x="151" y="72" width="939" height="1093"/>
<path d="M513.775 325.5C513.775 314.5 512.775 303.5 510.775 292.5C509.775 280.5 506.775 270 501.775 261C497.775 251 491.275 243 482.275 237C474.275 231 462.775 228 447.775 228C428.775 228 412.775 234 399.775 246C393.775 230 390.775 215.5 390.775 202.5C390.775 186.5 393.275 171 398.275 156C404.275 140 413.275 126 425.275 114C437.275 102 452.275 92.5 470.275 85.4999C489.275 77.4999 512.275 73.4999 539.275 73.4999C599.275 73.4999 645.775 91.4999 678.775 127.5C711.775 163.5 728.275 213 728.275 276V1164C701.275 1164 674.775 1162 648.775 1158C623.775 1154 600.775 1146 579.775 1134C559.775 1121 543.775 1102 531.775 1077C519.775 1052 513.775 1018.5 513.775 976.5V325.5ZM368.275 1164H353.275C327.275 1164 302.275 1161.5 278.275 1156.5C254.275 1151.5 232.775 1142.5 213.775 1129.5C195.775 1116.5 180.775 1098.5 168.775 1075.5C157.775 1052.5 152.275 1022.5 152.275 985.5V75H176.275C200.275 75 223.775 78 246.775 84C269.775 89 290.275 98.4999 308.275 112.5C326.275 125.5 340.775 143.5 351.775 166.5C362.775 189.5 368.275 219 368.275 255V1164ZM873.775 325.5C873.775 314.5 872.775 303.5 870.775 292.5C869.775 280.5 866.775 270 861.775 261C857.775 251 851.275 243 842.275 237C834.275 231 822.775 228 807.775 228C788.775 228 772.775 234 759.775 246C753.775 230 750.775 215.5 750.775 202.5C750.775 186.5 753.275 171 758.275 156C764.275 140 773.275 126 785.275 114C797.275 102 812.275 92.5 830.275 85.4999C849.275 77.4999 872.275 73.4999 899.275 73.4999C959.275 73.4999 1005.78 91.4999 1038.78 127.5C1071.78 163.5 1088.28 213 1088.28 276V1164C1061.28 1164 1034.78 1162 1008.78 1158C983.775 1154 960.775 1146 939.775 1134C919.775 1121 903.775 1102 891.775 1077C879.775 1052 873.775 1018.5 873.775 976.5V325.5Z"/>
</mask>
<path d="M513.775 325.5C513.775 314.5 512.775 303.5 510.775 292.5C509.775 280.5 506.775 270 501.775 261C497.775 251 491.275 243 482.275 237C474.275 231 462.775 228 447.775 228C428.775 228 412.775 234 399.775 246C393.775 230 390.775 215.5 390.775 202.5C390.775 186.5 393.275 171 398.275 156C404.275 140 413.275 126 425.275 114C437.275 102 452.275 92.5 470.275 85.4999C489.275 77.4999 512.275 73.4999 539.275 73.4999C599.275 73.4999 645.775 91.4999 678.775 127.5C711.775 163.5 728.275 213 728.275 276V1164C701.275 1164 674.775 1162 648.775 1158C623.775 1154 600.775 1146 579.775 1134C559.775 1121 543.775 1102 531.775 1077C519.775 1052 513.775 1018.5 513.775 976.5V325.5ZM368.275 1164H353.275C327.275 1164 302.275 1161.5 278.275 1156.5C254.275 1151.5 232.775 1142.5 213.775 1129.5C195.775 1116.5 180.775 1098.5 168.775 1075.5C157.775 1052.5 152.275 1022.5 152.275 985.5V75H176.275C200.275 75 223.775 78 246.775 84C269.775 89 290.275 98.4999 308.275 112.5C326.275 125.5 340.775 143.5 351.775 166.5C362.775 189.5 368.275 219 368.275 255V1164ZM873.775 325.5C873.775 314.5 872.775 303.5 870.775 292.5C869.775 280.5 866.775 270 861.775 261C857.775 251 851.275 243 842.275 237C834.275 231 822.775 228 807.775 228C788.775 228 772.775 234 759.775 246C753.775 230 750.775 215.5 750.775 202.5C750.775 186.5 753.275 171 758.275 156C764.275 140 773.275 126 785.275 114C797.275 102 812.275 92.5 830.275 85.4999C849.275 77.4999 872.275 73.4999 899.275 73.4999C959.275 73.4999 1005.78 91.4999 1038.78 127.5C1071.78 163.5 1088.28 213 1088.28 276V1164C1061.28 1164 1034.78 1162 1008.78 1158C983.775 1154 960.775 1146 939.775 1134C919.775 1121 903.775 1102 891.775 1077C879.775 1052 873.775 1018.5 873.775 976.5V325.5Z" fill="black"/>
<path d="M510.775 292.5L509.779 292.583L509.783 292.631L509.792 292.679L510.775 292.5ZM501.775 261L500.847 261.371L500.87 261.43L500.901 261.486L501.775 261ZM482.275 237L481.675 237.8L481.698 237.817L481.721 237.832L482.275 237ZM399.775 246L398.839 246.351L399.361 247.743L400.454 246.735L399.775 246ZM398.275 156L397.339 155.649L397.333 155.666L397.327 155.684L398.275 156ZM425.275 114L424.568 113.293L424.568 113.293L425.275 114ZM470.275 85.4999L470.638 86.4319L470.651 86.4269L470.663 86.4216L470.275 85.4999ZM728.275 1164V1165H729.275V1164H728.275ZM648.775 1158L648.617 1158.99L648.623 1158.99L648.775 1158ZM579.775 1134L579.23 1134.84L579.254 1134.85L579.279 1134.87L579.775 1134ZM531.775 1077L530.874 1077.43L530.874 1077.43L531.775 1077ZM368.275 1164V1165H369.275V1164H368.275ZM278.275 1156.5L278.071 1157.48L278.071 1157.48L278.275 1156.5ZM213.775 1129.5L213.19 1130.31L213.2 1130.32L213.211 1130.33L213.775 1129.5ZM168.775 1075.5L167.873 1075.93L167.881 1075.95L167.889 1075.96L168.775 1075.5ZM152.275 75V74H151.275V75H152.275ZM246.775 84L246.523 84.9676L246.543 84.9728L246.563 84.9771L246.775 84ZM308.275 112.5L307.661 113.289L307.676 113.3L307.69 113.311L308.275 112.5ZM351.775 166.5L352.678 166.069L352.678 166.069L351.775 166.5ZM870.775 292.5L869.779 292.583L869.783 292.631L869.792 292.679L870.775 292.5ZM861.775 261L860.847 261.371L860.87 261.43L860.901 261.486L861.775 261ZM842.275 237L841.675 237.8L841.698 237.817L841.721 237.832L842.275 237ZM759.775 246L758.839 246.351L759.361 247.743L760.454 246.735L759.775 246ZM758.275 156L757.339 155.649L757.333 155.666L757.327 155.684L758.275 156ZM785.275 114L784.568 113.293L784.568 113.293L785.275 114ZM830.275 85.4999L830.638 86.4319L830.651 86.4269L830.663 86.4216L830.275 85.4999ZM1088.28 1164V1165H1089.28V1164H1088.28ZM1008.78 1158L1008.62 1158.99L1008.62 1158.99L1008.78 1158ZM939.775 1134L939.23 1134.84L939.254 1134.85L939.279 1134.87L939.775 1134ZM891.775 1077L892.677 1076.57L892.677 1076.57L891.775 1077ZM514.775 325.5C514.775 314.439 513.77 303.379 511.759 292.321L509.792 292.679C511.781 303.621 512.775 314.561 512.775 325.5H514.775ZM511.772 292.417C510.762 280.299 507.729 269.658 502.65 260.514L500.901 261.486C505.822 270.342 508.789 280.701 509.779 292.583L511.772 292.417ZM502.704 260.629C498.628 250.44 491.998 242.28 482.83 236.168L481.721 237.832C490.553 243.72 496.922 251.56 500.847 261.371L502.704 260.629ZM482.875 236.2C474.635 230.02 462.889 227 447.775 227V229C462.662 229 473.916 231.98 481.675 237.8L482.875 236.2ZM447.775 227C428.544 227 412.296 233.081 399.097 245.265L400.454 246.735C413.255 234.919 429.006 229 447.775 229V227ZM400.712 245.649C394.741 229.728 391.775 215.349 391.775 202.5H389.775C389.775 215.651 392.809 230.272 398.839 246.351L400.712 245.649ZM391.775 202.5C391.775 186.606 394.258 171.213 399.224 156.316L397.327 155.684C392.292 170.787 389.775 186.394 389.775 202.5H391.775ZM399.212 156.351C405.162 140.484 414.084 126.605 425.983 114.707L424.568 113.293C412.467 125.395 403.389 139.516 397.339 155.649L399.212 156.351ZM425.983 114.707C437.872 102.818 452.749 93.3886 470.638 86.4319L469.913 84.5679C451.802 91.6113 436.679 101.182 424.568 113.293L425.983 114.707ZM470.663 86.4216C489.509 78.4866 512.369 74.4999 539.275 74.4999V72.4999C512.181 72.4999 489.042 76.5132 469.887 84.5783L470.663 86.4216ZM539.275 74.4999C599.064 74.4999 645.27 92.4282 678.038 128.176L679.513 126.824C646.281 90.5716 599.487 72.4999 539.275 72.4999V74.4999ZM678.038 128.176C710.825 163.943 727.275 213.175 727.275 276H729.275C729.275 212.825 712.726 163.057 679.513 126.824L678.038 128.176ZM727.275 276V1164H729.275V276H727.275ZM728.275 1163C701.325 1163 674.876 1161 648.927 1157.01L648.623 1158.99C674.675 1163 701.226 1165 728.275 1165V1163ZM648.933 1157.01C624.047 1153.03 601.162 1145.07 580.272 1133.13L579.279 1134.87C600.389 1146.93 623.504 1154.97 648.617 1158.99L648.933 1157.01ZM580.32 1133.16C560.498 1120.28 544.611 1101.43 532.677 1076.57L530.874 1077.43C542.94 1102.57 559.053 1121.72 579.23 1134.84L580.32 1133.16ZM532.677 1076.57C520.766 1051.75 514.775 1018.42 514.775 976.5H512.775C512.775 1018.58 518.784 1052.25 530.874 1077.43L532.677 1076.57ZM514.775 976.5V325.5H512.775V976.5H514.775ZM368.275 1163H353.275V1165H368.275V1163ZM353.275 1163C327.34 1163 302.408 1160.51 278.479 1155.52L278.071 1157.48C302.142 1162.49 327.211 1165 353.275 1165V1163ZM278.479 1155.52C254.6 1150.55 233.224 1141.6 214.34 1128.67L213.211 1130.33C232.327 1143.4 253.951 1152.45 278.071 1157.48L278.479 1155.52ZM214.361 1128.69C196.507 1115.79 181.602 1097.92 169.662 1075.04L167.889 1075.96C179.949 1099.08 195.044 1117.21 213.19 1130.31L214.361 1128.69ZM169.678 1075.07C158.764 1052.25 153.275 1022.41 153.275 985.5H151.275C151.275 1022.59 156.786 1052.75 167.873 1075.93L169.678 1075.07ZM153.275 985.5V75H151.275V985.5H153.275ZM152.275 76H176.275V74H152.275V76ZM176.275 76C200.191 76 223.606 78.9893 246.523 84.9676L247.028 83.0323C223.945 77.0106 200.36 74 176.275 74V76ZM246.563 84.9771C269.422 89.9464 289.783 99.3842 307.661 113.289L308.889 111.711C290.767 97.6157 270.129 88.0535 246.988 83.0228L246.563 84.9771ZM307.69 113.311C325.535 126.199 339.935 144.06 350.873 166.931L352.678 166.069C341.616 142.94 327.015 124.801 308.861 111.689L307.69 113.311ZM350.873 166.931C361.788 189.753 367.275 219.092 367.275 255H369.275C369.275 218.908 363.763 189.247 352.678 166.069L350.873 166.931ZM367.275 255V1164H369.275V255H367.275ZM874.775 325.5C874.775 314.439 873.77 303.379 871.759 292.321L869.792 292.679C871.781 303.621 872.775 314.561 872.775 325.5H874.775ZM871.772 292.417C870.762 280.299 867.729 269.658 862.65 260.514L860.901 261.486C865.822 270.342 868.789 280.701 869.779 292.583L871.772 292.417ZM862.704 260.629C858.628 250.44 851.998 242.28 842.83 236.168L841.721 237.832C850.553 243.72 856.922 251.56 860.847 261.371L862.704 260.629ZM842.875 236.2C834.635 230.02 822.889 227 807.775 227V229C822.662 229 833.916 231.98 841.675 237.8L842.875 236.2ZM807.775 227C788.544 227 772.296 233.081 759.097 245.265L760.454 246.735C773.255 234.919 789.007 229 807.775 229V227ZM760.712 245.649C754.741 229.728 751.775 215.349 751.775 202.5H749.775C749.775 215.651 752.81 230.272 758.839 246.351L760.712 245.649ZM751.775 202.5C751.775 186.606 754.259 171.213 759.224 156.316L757.327 155.684C752.292 170.787 749.775 186.394 749.775 202.5H751.775ZM759.212 156.351C765.162 140.484 774.084 126.605 785.983 114.707L784.568 113.293C772.467 125.395 763.389 139.516 757.339 155.649L759.212 156.351ZM785.983 114.707C797.872 102.818 812.749 93.3886 830.638 86.4319L829.913 84.5679C811.802 91.6113 796.679 101.182 784.568 113.293L785.983 114.707ZM830.663 86.4216C849.509 78.4866 872.369 74.4999 899.275 74.4999V72.4999C872.181 72.4999 849.042 76.5132 829.887 84.5783L830.663 86.4216ZM899.275 74.4999C959.064 74.4999 1005.27 92.4282 1038.04 128.176L1039.51 126.824C1006.28 90.5716 959.487 72.4999 899.275 72.4999V74.4999ZM1038.04 128.176C1070.82 163.943 1087.28 213.175 1087.28 276H1089.28C1089.28 212.825 1072.73 163.057 1039.51 126.824L1038.04 128.176ZM1087.28 276V1164H1089.28V276H1087.28ZM1088.28 1163C1061.32 1163 1034.88 1161 1008.93 1157.01L1008.62 1158.99C1034.67 1163 1061.23 1165 1088.28 1165V1163ZM1008.93 1157.01C984.047 1153.03 961.162 1145.07 940.272 1133.13L939.279 1134.87C960.389 1146.93 983.504 1154.97 1008.62 1158.99L1008.93 1157.01ZM940.32 1133.16C920.498 1120.28 904.611 1101.43 892.677 1076.57L890.874 1077.43C902.94 1102.57 919.053 1121.72 939.23 1134.84L940.32 1133.16ZM892.677 1076.57C880.766 1051.75 874.775 1018.42 874.775 976.5H872.775C872.775 1018.58 878.784 1052.25 890.874 1077.43L892.677 1076.57ZM874.775 976.5V325.5H872.775V976.5H874.775Z" fill="black" mask="url(#path-1-outside-1_0_1)"/>
<line x1="79.1376" y1="442" x2="1160.71" y2="446.961" stroke="black" stroke-width="60"/>
</g>
<defs>
<clipPath id="clip0_0_1">
<rect width="1240" height="1240" fill="white"/>
</clipPath>
</defs>
</svg>
